<svg width="20" height="22" viewBox="0 0 20 22" fill="none" xmlns="http://www.w3.org/2000/svg">
<path fill-rule="evenodd" clip-rule="evenodd" d="M2 20V6H18V20H2ZM15.1716 2L17.1716 4H2.82837L4.82837 2H15.1716ZM0 4V20C0 21.1046 0.895386 22 2 22H18C19.1046 22 20 21.1046 20 20V4L16 0H4L0 4ZM6 8C6.55225 8 7 8.44772 7 9C7 10.6569 8.34314 12 10 12C11.6569 12 13 10.6569 13 9C13 8.44772 13.4478 8 14 8C14.5522 8 15 8.44772 15 9C15 11.7614 12.7615 14 10 14C7.23853 14 5 11.7614 5 9C5 8.44772 5.44775 8 6 8Z" fill="white"/>
</svg>
